<?xml version="1.0" encoding="utf-8"?><!-- Uploaded to: SVG Repo, www.svgrepo.com, Generator: SVG Repo Mixer Tools -->
<svg fill="#000000" width="800px" height="800px" viewBox="0 0 1024 1024" xmlns="http://www.w3.org/2000/svg"><path d="M911.36 512.512c0-220.848-178.804-399.872-399.36-399.872S112.64 291.664 112.64 512.512 291.444 912.384 512 912.384 911.36 733.36 911.36 512.512zm40.96 0c0 243.458-197.131 440.832-440.32 440.832S71.68 755.97 71.68 512.512 268.811 71.68 512 71.68s440.32 197.374 440.32 440.832z"/><path d="M729.387 512.512c0-222.343-100.458-399.872-217.385-399.872S294.617 290.169 294.617 512.512c0 222.343 100.458 399.872 217.385 399.872s217.385-177.529 217.385-399.872zm40.96 0c0 241.961-112.535 440.832-258.345 440.832S253.657 754.473 253.657 512.512c0-241.961 112.535-440.832 258.345-440.832s258.345 198.871 258.345 440.832z"/><path d="M95.383 532.992h832.543c11.311 0 20.48-9.169 20.48-20.48s-9.169-20.48-20.48-20.48H95.383c-11.311 0-20.48 9.169-20.48 20.48s9.169 20.48 20.48 20.48z"/><path d="M491.52 92.387V932.64c0 11.311 9.169 20.48 20.48 20.48s20.48-9.169 20.48-20.48V92.387c0-11.311-9.169-20.48-20.48-20.48s-20.48 9.169-20.48 20.48z"/></svg>